<svg width="361" height="411" viewBox="0 0 361 411" fill="none" xmlns="http://www.w3.org/2000/svg">
<mask id="path-1-inside-1_6_295" fill="white">
<path d="M0 356.917C0.103386 356.844 0.204081 356.81 0.302224 356.812C4.63743 355.282 8.13781 352.99 8.51108 347.835C8.62929 346.16 9.17488 344.594 9.8023 343.073C10.4388 341.534 9.76592 339.067 12.3029 338.815C14.5125 338.599 16.4948 339.383 17.7314 341.408C19.9319 345.026 22.9599 344.63 26.4516 343.487C31.9529 341.696 34.208 336.628 38.0271 333.145C43.5466 328.113 43.1192 321.497 44.0103 315.295C44.4468 312.271 44.7923 310.084 48.1113 309.354C49.5207 309.039 50.721 308.31 50.5755 306.618C50.4482 305.07 49.3661 304.179 47.9567 303.864C45.7107 303.36 43.7011 302.351 41.6279 301.433C39.6547 300.551 37.5542 299.975 37.727 297.212C37.9089 294.295 39.5638 292.648 42.2554 291.676C47.1474 289.903 47.7203 288.247 43.983 284.889C40.6004 281.847 39.7548 278.579 40.8914 274.439C41.246 273.142 41.1915 271.765 41.2187 270.415C41.3824 263.151 42.4281 261.549 49.5025 259.065C52.4032 258.038 52.2668 256.859 50.4936 254.96C48.3659 252.674 46.1835 250.576 44.5468 247.723C41.6188 242.601 42.5827 236.579 39.773 231.476C38.7273 229.558 38.8727 226.705 40.5731 224.626C44.0376 220.386 47.6566 216.345 50.6482 211.646C52.876 208.145 54.4855 204.814 54.4673 200.998C54.44 196.65 55.2038 192.653 56.1768 188.423C57.2589 183.67 59.0502 180.241 63.2512 178.26C69.3526 175.371 71.2894 170.51 70.6438 164.309C70.3438 161.401 71.4804 159.439 73.7445 157.801C75.6996 156.378 77.6182 154.938 79.8096 153.858C81.9919 152.787 84.2652 151.527 85.1836 149.213C86.7021 145.388 89.7665 144.227 93.4128 143.966C95.9134 143.777 98.1957 143.444 99.787 141.211C100.405 140.329 101.533 140.104 102.533 139.726C107.753 137.755 112.945 135.676 118.737 136.909C119.473 137.062 120.265 136.9 120.919 136.477C125.438 133.533 129.185 129.348 132.14 125.333C135.459 120.824 137.632 114.82 136.814 108.411C136.177 103.478 138.251 99.3467 142.715 96.6013C145.38 94.9631 146.753 92.7038 146.098 89.4093C144.834 83.0364 148.162 76.8346 146.907 70.3987C146.553 68.5535 148.426 67.2573 149.453 65.7901C151.399 63.0087 154.227 60.7044 154 56.7708C153.736 52.0632 155.827 48.2017 160.31 46.9055C168.33 44.5832 171.386 38.3093 175.014 31.8374C177.605 27.2108 179.469 23.1422 177.342 17.9755C176.678 16.3733 177.387 15.1042 179.215 14.5281C182.988 13.3399 188.99 15.7432 190.726 19.2807C191.263 20.3699 191.609 21.585 193.118 21.639C194.837 21.702 195.373 20.3789 195.946 19.1457C196.51 17.9215 197.155 16.6884 197.201 15.3202C197.292 12.8358 198.41 11.0716 200.602 9.88343C201.838 9.21734 202.502 8.01118 203.257 6.87703C206.621 1.83634 220.915 -1.86317 226.28 0.999223C227.79 1.80033 229.236 2.52043 230.945 2.53843C233.091 2.56544 234.473 3.52857 235.792 5.2658C239.874 10.6665 244.866 14.4381 252.314 13.4389C254.832 13.1059 257.087 14.15 258.897 15.9323C260.952 17.9575 263.398 18.7226 266.281 18.8127C271.864 18.9927 272.346 19.5328 272.464 25.2485C272.555 29.5241 273.691 33.6557 273.628 38.0483C273.573 41.8828 274.355 45.6453 272.891 49.4348C272.218 51.1721 272.564 53.1253 273.864 54.5295C276.092 56.9239 277.229 59.8763 278.411 62.7747C280.493 67.8874 283.785 71.7039 289.013 73.8642C291.768 75.0073 293.432 76.9696 292.823 80.219C292.278 83.1174 293.732 85.0257 295.978 86.6729C299.579 89.3193 303.289 91.4436 308.045 90.8405C309.391 90.6695 310.736 90.9935 312 91.6326C318.111 94.711 323.003 98.8066 325.385 105.531C326.395 108.384 328.513 110.85 324.512 113.038C323.612 113.533 323.548 114.865 323.43 115.909C323.112 118.735 321.684 120.581 318.902 121.49C316.074 122.417 313.728 123.596 317.529 126.449C318.51 127.187 318.22 128.356 317.966 129.382L317.965 129.384C317.274 132.156 318.993 132.813 321.202 133.02C322.857 133.182 324.549 132.966 326.195 133.182C329.95 133.668 333.469 134.992 334.969 138.637C336.733 142.931 340.207 146.855 338.452 152.148C338.043 153.38 339.034 154.656 339.869 155.73L339.925 155.802C342.053 158.539 344.071 161.347 346.49 163.849C351.21 168.746 355.065 174.354 358.802 179.971C363.03 186.317 360.421 192.32 353.228 193.968C351.255 194.427 349.127 195.057 348.927 197.343C348.727 199.665 350.973 200.025 352.673 200.539C354.574 201.106 356.474 202.051 355.756 204.193C354.647 207.514 355.001 211.16 353.683 214.256C351.291 219.864 349.418 225.445 349.682 231.611C349.782 233.942 348.154 234.671 346.145 234.842C344.917 234.95 343.744 234.581 342.553 234.365C341.144 234.104 339.78 234.086 338.952 235.508C338.161 236.867 338.707 238.074 339.461 239.28C343.617 245.905 342.835 251.098 336.752 255.878C334.842 257.372 334.815 258.704 336.106 260.424C336.924 261.513 337.97 262.395 338.898 263.376C340.071 264.618 342.262 265.437 341.507 267.661C340.762 269.857 338.661 270.226 336.642 270.217C333.605 270.199 331.641 271.612 331.059 274.448C330.168 278.822 327.704 280.794 323.194 280.379C322.166 280.28 321.121 280.767 320.075 280.947C317.602 281.379 316.292 282.675 316.62 285.285C316.911 287.643 315.665 289.246 313.983 290.695C311.237 293.062 308.209 295.078 305.317 297.248C301.98 299.75 295.015 299.696 292.468 297.491C291.259 296.447 290.359 294.241 288.568 295.033C286.458 295.961 287.167 298.409 287.067 300.29C286.994 301.631 287.149 302.982 287.522 304.296C288.977 309.363 289.45 314.566 292.75 319.247C295.105 322.577 296.606 326.034 300.77 327.807C305.308 329.742 306.808 334.945 304.708 339.563C303.889 341.372 303.417 343.253 303.153 345.179C302.725 348.24 301.134 349.401 297.97 349.527C293.105 349.725 288.677 351.327 286.403 356.053C284.949 359.068 283.203 361.256 279.565 361.787C277.556 362.084 276.528 364.064 275.374 365.675C272.755 369.348 270.163 373.092 266.417 375.747C261.307 379.375 255.042 380.707 249.513 383.723C244.439 386.486 237.701 387.512 231.609 387.854C225.025 388.232 219.97 392.247 213.823 393.363C210.568 393.948 208.749 398.359 206.212 398.404C200.097 398.502 194.908 400.712 189.59 402.977L189.508 403.012C189.108 403.192 188.617 403.255 188.171 403.237C182.206 403.048 177.014 405.569 171.931 408.098C163.029 412.536 154.291 407.972 145.48 408.035C145.105 408.035 144.714 407.647 144.402 407.337L144.361 407.297C142.488 405.398 140.106 405.218 137.632 405.218C132.777 405.218 127.93 405.263 123.083 405.191C120.174 405.155 117.828 404.191 116.236 401.572C111.462 393.723 105.888 392.121 97.2591 395.892C95.6042 396.621 93.9766 397.557 92.2671 398.008C86.9658 399.403 81.3372 400.168 76.3633 397.656C71.9805 395.442 67.9886 392.607 63.2057 390.96C58.3864 389.303 53.3489 387.422 49.8662 383.525C47.4929 380.869 44.9469 379.87 41.5552 379.96C38.6181 380.041 35.4719 379.699 33.9443 376.882C31.7529 372.831 28.1157 369.987 25.5787 366.386C22.2143 361.607 18.7135 360.652 13.7032 362.984C12.7666 363.425 11.6755 363.587 10.7662 364.145C7.95641 365.864 5.39217 365.936 3.08254 363.236C2.37475 362.418 1.54204 356.832 0.302224 356.812C0.20192 356.847 0.101169 356.882 0 356.917Z"/>
</mask>
<path d="M0 356.917C0.103386 356.844 0.204081 356.81 0.302224 356.812C4.63743 355.282 8.13781 352.99 8.51108 347.835C8.62929 346.16 9.17488 344.594 9.8023 343.073C10.4388 341.534 9.76592 339.067 12.3029 338.815C14.5125 338.599 16.4948 339.383 17.7314 341.408C19.9319 345.026 22.9599 344.63 26.4516 343.487C31.9529 341.696 34.208 336.628 38.0271 333.145C43.5466 328.113 43.1192 321.497 44.0103 315.295C44.4468 312.271 44.7923 310.084 48.1113 309.354C49.5207 309.039 50.721 308.31 50.5755 306.618C50.4482 305.07 49.3661 304.179 47.9567 303.864C45.7107 303.36 43.7011 302.351 41.6279 301.433C39.6547 300.551 37.5542 299.975 37.727 297.212C37.9089 294.295 39.5638 292.648 42.2554 291.676C47.1474 289.903 47.7203 288.247 43.983 284.889C40.6004 281.847 39.7548 278.579 40.8914 274.439C41.246 273.142 41.1915 271.765 41.2187 270.415C41.3824 263.151 42.4281 261.549 49.5025 259.065C52.4032 258.038 52.2668 256.859 50.4936 254.96C48.3659 252.674 46.1835 250.576 44.5468 247.723C41.6188 242.601 42.5827 236.579 39.773 231.476C38.7273 229.558 38.8727 226.705 40.5731 224.626C44.0376 220.386 47.6566 216.345 50.6482 211.646C52.876 208.145 54.4855 204.814 54.4673 200.998C54.44 196.65 55.2038 192.653 56.1768 188.423C57.2589 183.67 59.0502 180.241 63.2512 178.26C69.3526 175.371 71.2894 170.51 70.6438 164.309C70.3438 161.401 71.4804 159.439 73.7445 157.801C75.6996 156.378 77.6182 154.938 79.8096 153.858C81.9919 152.787 84.2652 151.527 85.1836 149.213C86.7021 145.388 89.7665 144.227 93.4128 143.966C95.9134 143.777 98.1957 143.444 99.787 141.211C100.405 140.329 101.533 140.104 102.533 139.726C107.753 137.755 112.945 135.676 118.737 136.909C119.473 137.062 120.265 136.9 120.919 136.477C125.438 133.533 129.185 129.348 132.14 125.333C135.459 120.824 137.632 114.82 136.814 108.411C136.177 103.478 138.251 99.3467 142.715 96.6013C145.38 94.9631 146.753 92.7038 146.098 89.4093C144.834 83.0364 148.162 76.8346 146.907 70.3987C146.553 68.5535 148.426 67.2573 149.453 65.7901C151.399 63.0087 154.227 60.7044 154 56.7708C153.736 52.0632 155.827 48.2017 160.31 46.9055C168.33 44.5832 171.386 38.3093 175.014 31.8374C177.605 27.2108 179.469 23.1422 177.342 17.9755C176.678 16.3733 177.387 15.1042 179.215 14.5281C182.988 13.3399 188.99 15.7432 190.726 19.2807C191.263 20.3699 191.609 21.585 193.118 21.639C194.837 21.702 195.373 20.3789 195.946 19.1457C196.51 17.9215 197.155 16.6884 197.201 15.3202C197.292 12.8358 198.41 11.0716 200.602 9.88343C201.838 9.21734 202.502 8.01118 203.257 6.87703C206.621 1.83634 220.915 -1.86317 226.28 0.999223C227.79 1.80033 229.236 2.52043 230.945 2.53843C233.091 2.56544 234.473 3.52857 235.792 5.2658C239.874 10.6665 244.866 14.4381 252.314 13.4389C254.832 13.1059 257.087 14.15 258.897 15.9323C260.952 17.9575 263.398 18.7226 266.281 18.8127C271.864 18.9927 272.346 19.5328 272.464 25.2485C272.555 29.5241 273.691 33.6557 273.628 38.0483C273.573 41.8828 274.355 45.6453 272.891 49.4348C272.218 51.1721 272.564 53.1253 273.864 54.5295C276.092 56.9239 277.229 59.8763 278.411 62.7747C280.493 67.8874 283.785 71.7039 289.013 73.8642C291.768 75.0073 293.432 76.9696 292.823 80.219C292.278 83.1174 293.732 85.0257 295.978 86.6729C299.579 89.3193 303.289 91.4436 308.045 90.8405C309.391 90.6695 310.736 90.9935 312 91.6326C318.111 94.711 323.003 98.8066 325.385 105.531C326.395 108.384 328.513 110.85 324.512 113.038C323.612 113.533 323.548 114.865 323.43 115.909C323.112 118.735 321.684 120.581 318.902 121.49C316.074 122.417 313.728 123.596 317.529 126.449C318.51 127.187 318.22 128.356 317.966 129.382L317.965 129.384C317.274 132.156 318.993 132.813 321.202 133.02C322.857 133.182 324.549 132.966 326.195 133.182C329.95 133.668 333.469 134.992 334.969 138.637C336.733 142.931 340.207 146.855 338.452 152.148C338.043 153.38 339.034 154.656 339.869 155.73L339.925 155.802C342.053 158.539 344.071 161.347 346.49 163.849C351.21 168.746 355.065 174.354 358.802 179.971C363.03 186.317 360.421 192.32 353.228 193.968C351.255 194.427 349.127 195.057 348.927 197.343C348.727 199.665 350.973 200.025 352.673 200.539C354.574 201.106 356.474 202.051 355.756 204.193C354.647 207.514 355.001 211.16 353.683 214.256C351.291 219.864 349.418 225.445 349.682 231.611C349.782 233.942 348.154 234.671 346.145 234.842C344.917 234.95 343.744 234.581 342.553 234.365C341.144 234.104 339.78 234.086 338.952 235.508C338.161 236.867 338.707 238.074 339.461 239.28C343.617 245.905 342.835 251.098 336.752 255.878C334.842 257.372 334.815 258.704 336.106 260.424C336.924 261.513 337.97 262.395 338.898 263.376C340.071 264.618 342.262 265.437 341.507 267.661C340.762 269.857 338.661 270.226 336.642 270.217C333.605 270.199 331.641 271.612 331.059 274.448C330.168 278.822 327.704 280.794 323.194 280.379C322.166 280.28 321.121 280.767 320.075 280.947C317.602 281.379 316.292 282.675 316.62 285.285C316.911 287.643 315.665 289.246 313.983 290.695C311.237 293.062 308.209 295.078 305.317 297.248C301.98 299.75 295.015 299.696 292.468 297.491C291.259 296.447 290.359 294.241 288.568 295.033C286.458 295.961 287.167 298.409 287.067 300.29C286.994 301.631 287.149 302.982 287.522 304.296C288.977 309.363 289.45 314.566 292.75 319.247C295.105 322.577 296.606 326.034 300.77 327.807C305.308 329.742 306.808 334.945 304.708 339.563C303.889 341.372 303.417 343.253 303.153 345.179C302.725 348.24 301.134 349.401 297.97 349.527C293.105 349.725 288.677 351.327 286.403 356.053C284.949 359.068 283.203 361.256 279.565 361.787C277.556 362.084 276.528 364.064 275.374 365.675C272.755 369.348 270.163 373.092 266.417 375.747C261.307 379.375 255.042 380.707 249.513 383.723C244.439 386.486 237.701 387.512 231.609 387.854C225.025 388.232 219.97 392.247 213.823 393.363C210.568 393.948 208.749 398.359 206.212 398.404C200.097 398.502 194.908 400.712 189.59 402.977L189.508 403.012C189.108 403.192 188.617 403.255 188.171 403.237C182.206 403.048 177.014 405.569 171.931 408.098C163.029 412.536 154.291 407.972 145.48 408.035C145.105 408.035 144.714 407.647 144.402 407.337L144.361 407.297C142.488 405.398 140.106 405.218 137.632 405.218C132.777 405.218 127.93 405.263 123.083 405.191C120.174 405.155 117.828 404.191 116.236 401.572C111.462 393.723 105.888 392.121 97.2591 395.892C95.6042 396.621 93.9766 397.557 92.2671 398.008C86.9658 399.403 81.3372 400.168 76.3633 397.656C71.9805 395.442 67.9886 392.607 63.2057 390.96C58.3864 389.303 53.3489 387.422 49.8662 383.525C47.4929 380.869 44.9469 379.87 41.5552 379.96C38.6181 380.041 35.4719 379.699 33.9443 376.882C31.7529 372.831 28.1157 369.987 25.5787 366.386C22.2143 361.607 18.7135 360.652 13.7032 362.984C12.7666 363.425 11.6755 363.587 10.7662 364.145C7.95641 365.864 5.39217 365.936 3.08254 363.236C2.37475 362.418 1.54204 356.832 0.302224 356.812C0.20192 356.847 0.101169 356.882 0 356.917Z" stroke="url(#paint0_linear_6_295)" stroke-width="8" mask="url(#path-1-inside-1_6_295)"/>
<defs>
<linearGradient id="paint0_linear_6_295" x1="180.418" y1="0" x2="180.418" y2="410.04" gradientUnits="userSpaceOnUse">
<stop stop-color="#0069DA"/>
<stop offset="0.328125" stop-color="#00A650"/>
<stop offset="0.609375" stop-color="#FFD600"/>
<stop offset="1" stop-color="#FF4649"/>
</linearGradient>
</defs>
</svg>
